<svg width="208" height="207" viewBox="0 0 208 207" fill="none" xmlns="http://www.w3.org/2000/svg">
<path d="M207.274 103.587C207.274 108.707 206.897 113.76 206.187 118.68C205.944 120.32 205.655 121.916 205.367 123.512C205.278 123.977 205.168 124.465 205.057 124.93C204.746 126.548 204.369 128.122 203.926 129.695C201.687 138.361 198.339 146.584 194.06 154.186C192.863 156.313 191.577 158.419 190.224 160.458C188.118 163.627 185.879 166.664 183.418 169.567C183.218 169.833 183.019 170.077 182.797 170.321C181.644 171.695 180.447 173.024 179.228 174.332C174.106 179.784 168.408 184.682 162.2 188.915C157.788 191.93 153.154 194.611 148.277 196.894C148.011 197.049 147.723 197.16 147.456 197.293C147.301 197.382 147.168 197.448 147.013 197.515C143.998 198.911 140.894 200.152 137.701 201.238C136.836 201.548 135.928 201.836 135.041 202.125C131.715 203.188 128.301 204.075 124.82 204.784C123.578 205.05 122.315 205.272 121.051 205.493C115.486 206.424 109.744 206.912 103.913 206.912C84.9786 206.912 67.2418 201.836 51.9882 192.949C49.9928 191.819 48.0639 190.6 46.1794 189.337C45.6029 188.915 45.0264 188.516 44.45 188.118C44.2061 187.94 43.9401 187.763 43.6962 187.586C42.632 186.832 41.5899 186.034 40.57 185.236C40.304 185.037 40.038 184.837 39.7941 184.616C39.395 184.328 38.9959 183.995 38.619 183.685C38.5303 183.618 38.4416 183.552 38.3529 183.463C35.2268 180.914 32.2781 178.188 29.4624 175.285C28.5977 174.354 27.7109 173.423 26.8684 172.47C24.6735 170.01 22.5894 167.439 20.6162 164.78C7.97875 147.648 0.529297 126.482 0.529297 103.587C0.529297 46.5172 46.8223 0.262695 103.913 0.262695C160.981 0.262695 207.274 46.5172 207.274 103.587Z" fill="#110828"/>
<path d="M56.4228 134.372L55.6911 138.295L46.1798 189.337C45.6034 188.916 45.0269 188.517 44.4504 188.118C44.2066 187.94 43.9406 187.763 43.6967 187.586C42.6325 186.832 41.5904 186.034 40.5705 185.236C40.3045 185.037 40.0385 184.838 39.7946 184.616C39.3955 184.328 38.9964 183.995 38.6195 183.685C38.5308 183.619 38.4421 183.552 38.3534 183.463C35.2273 180.915 32.2786 178.189 29.4629 175.285C39.196 154.142 55.1368 135.835 56.3563 134.461C56.3784 134.416 56.4007 134.394 56.4228 134.372Z" fill="#E2209E"/>
<path d="M203.926 129.696C201.687 138.362 198.339 146.584 194.06 154.186C192.863 156.314 191.577 158.419 190.225 160.458C187.941 163.894 185.48 167.196 182.797 170.321C181.645 171.695 180.447 173.025 179.228 174.332C174.106 179.785 168.409 184.683 162.201 188.916C157.545 192.107 152.623 194.922 147.457 197.293C144.176 196.562 140.872 195.653 137.613 194.678C133.711 193.481 129.831 192.152 126.018 190.733C120.453 188.672 115.065 186.389 109.877 184.04C83.6487 172.005 63.7614 157.777 63.7614 157.777C63.7614 157.777 62.0099 154.275 60.0366 148.402C59.0611 145.476 58.0191 141.974 57.1544 138.029C57.0658 137.652 56.977 137.231 56.9105 136.832C56.8883 136.766 56.8884 136.744 56.8662 136.699C56.711 135.946 56.5558 135.17 56.4228 134.372C55.1147 127.302 54.4052 119.124 55.2034 110.48C55.935 102.324 61.3891 91.6196 66.8653 79.7623C68.5282 76.061 70.1909 72.3376 71.7429 68.5034C72.7627 65.9768 73.7161 63.4059 74.5808 60.8128C76.2658 55.8039 77.5739 50.7064 78.1725 45.6754C78.3499 44.4342 78.4608 43.2817 78.5051 42.0849C78.6381 39.7356 78.6159 37.3642 78.3942 35.037C78.3942 35.037 96.1975 22.7808 115.952 36.2117C121.184 39.7799 124.089 43.7472 125.818 47.8252C127.725 52.3465 128.19 56.9786 128.745 61.256C129.543 67.6169 130.518 73.1798 136.881 76.4156C151.337 83.8403 165.171 92.5726 164.595 107.4C163.996 122.205 172.266 139.581 184.017 131.38C189.338 127.657 196.787 127.324 203.926 129.696Z" fill="#5E1DBB"/>
<path d="M137.702 201.238C136.837 201.548 135.928 201.836 135.042 202.124C131.716 203.188 128.301 204.075 124.821 204.784C123.579 205.05 122.315 205.271 121.052 205.493C115.487 206.424 109.744 206.911 103.913 206.911C84.9794 206.911 67.2426 201.836 51.989 192.949C49.9936 191.818 48.0647 190.599 46.1802 189.336C45.6037 188.915 45.0272 188.516 44.4508 188.117C44.2069 187.94 43.9409 187.762 43.697 187.585C42.6328 186.832 41.5907 186.034 40.5709 185.236C40.3048 185.036 40.0388 184.837 39.7949 184.615C39.7949 184.549 39.8171 184.482 39.8171 184.416C39.8615 184.128 39.928 183.817 39.9723 183.507C40.5709 179.961 41.2582 176.481 42.012 173.068C42.0342 172.913 42.0785 172.78 42.1007 172.647C44.3178 162.718 47.2665 153.565 51.1243 145.941C52.0333 144.123 52.9866 142.417 54.0287 140.799C54.5608 139.912 55.115 139.092 55.6915 138.294C56.0684 137.74 56.4675 137.208 56.8666 136.699C57.0883 136.41 57.3322 136.1 57.5761 135.812C58.729 134.394 59.904 133.13 61.1456 132C62.7419 130.493 64.3382 129.163 65.9567 127.9C66.0675 127.856 66.1341 127.833 66.1563 127.789C71.2556 123.888 76.4658 121.118 81.6538 119.256C93.0497 115.112 104.202 115.2 113.491 116.774C114.046 116.863 114.578 116.951 115.088 117.084C118.768 117.793 122.138 118.702 125.042 119.677C131.849 121.916 136.194 124.354 136.726 124.664C136.771 124.686 137.613 194.677 137.613 194.677L137.702 201.238Z" fill="#E2209E"/>
<path d="M205.056 124.931C204.746 126.549 204.369 128.122 203.925 129.696C201.686 138.362 198.338 146.584 194.059 154.186C192.862 156.314 191.576 158.419 190.224 160.458C184.769 157.843 178.894 154.762 173.329 151.682C159.317 144.035 147.123 136.433 147.123 136.433L142.467 127.169L124.265 90.7995L119.631 81.5575L118.19 78.632L113.889 70.077L113.046 68.3926L112.603 67.5061L109.277 60.8793L112.248 58.5521C112.27 58.5521 115.13 56.2693 115.13 56.2693L125.817 47.8252C125.817 47.8252 125.728 54.8287 128.743 61.2561C130.717 65.5114 134.02 69.5008 139.629 71.03C150.759 74.0885 160.603 74.7977 166.988 89.2259C173.241 103.366 164.882 113.472 176.744 121.252C187.408 128.255 191.909 120.498 205.056 124.931Z" fill="#5E1DBB"/>
<path d="M111.939 94.8555L113.668 119.146C113.668 119.146 109.788 126.438 95.6434 128.61C85.1121 130.228 81.3652 125.02 81.3652 125.02L82.4072 103.566L107.682 96.0966L111.939 94.8555Z" fill="#FD8753"/>
<path d="M107.704 96.1182C107.681 96.7831 107.504 97.5809 107.172 98.5118C102.604 111.034 87.9271 114.713 81.8301 115.688L82.4286 103.587L107.704 96.1182Z" fill="black"/>
<path d="M73.0508 48.6009C73.0508 48.6009 62.4752 79.9839 68.7053 96.5398C74.9353 113.096 90.1889 109.084 99.1682 105.006C108.147 100.928 111.939 94.8775 111.939 94.8775C111.939 94.8775 120.851 97.0495 125.929 88.5167C131.006 79.9839 126.638 71.0522 121.517 69.3678C116.395 67.6834 110.83 71.7614 110.83 71.7614L114.666 62.5858C114.688 62.5637 91.4306 19.5893 73.0508 48.6009Z" fill="#FD8753"/>
<path d="M110.851 71.7386C110.851 71.7386 98.1253 75.6172 87.6828 62.0312C77.2624 48.4452 77.5064 42.439 77.5064 42.439L69.9682 58.2191C69.9682 58.2191 66.953 48.0684 70.456 41.0649C73.959 34.0613 78.3931 35.0143 78.3931 35.0143L107.725 39.4026L117.481 61.6322L110.851 71.7386Z" fill="#5E1DBB"/>
<path d="M83.4051 94.9435C82.9838 94.9435 82.7179 94.8992 82.6735 94.8992C82.0749 94.8105 81.6536 94.2343 81.7423 93.6359C81.8309 93.0375 82.4074 92.6164 83.006 92.705C83.1834 92.7272 86.9525 93.1926 90.123 88.6492C90.4777 88.1394 91.165 88.0286 91.675 88.3832C92.1849 88.7378 92.2957 89.4249 91.941 89.9346C88.7927 94.4116 84.9792 94.9435 83.4051 94.9435Z" fill="black"/>
<path d="M77.7074 87.0311C77.264 87.0311 76.865 86.7652 76.6876 86.3441C74.0493 80.0054 78.0179 72.9575 78.1952 72.6472C78.5056 72.1153 79.1707 71.938 79.7029 72.2261C80.235 72.5364 80.4123 73.2013 80.1241 73.7332C80.0798 73.7997 76.5324 80.1606 78.7273 85.4797C78.9712 86.0559 78.7051 86.6987 78.1287 86.9203C77.9956 87.0089 77.8404 87.0311 77.7074 87.0311Z" fill="black"/>
<path d="M84.2471 72.4703C84.0032 72.4703 83.7815 72.4039 83.582 72.2487C83.0942 71.8719 83.0056 71.1849 83.3603 70.6973C83.449 70.5865 85.3334 68.1264 87.9718 68.082C89.4572 68.082 90.9649 68.8578 92.2065 70.4535C92.5834 70.9411 92.4947 71.6281 92.0291 72.0049C91.5414 72.3817 90.854 72.293 90.4771 71.8276C89.679 70.8081 88.8587 70.2983 88.0384 70.2983C86.7303 70.2983 85.5109 71.5395 85.134 72.0271C84.9123 72.3152 84.5796 72.4703 84.2471 72.4703Z" fill="black"/>
<path d="M74.2708 72.4704C73.8274 72.4704 73.4062 72.2045 73.251 71.7612C73.0958 71.3623 72.4528 70.1876 71.6324 70.0325C70.9008 69.8995 70.014 70.6309 69.4153 71.2958C68.9941 71.7612 68.3069 71.7833 67.8413 71.3622C67.3979 70.9411 67.3535 70.2541 67.7747 69.7887C69.1937 68.2373 70.6347 67.5945 72.0315 67.8383C74.2043 68.2372 75.2021 70.653 75.3129 70.919C75.5346 71.4952 75.2463 72.138 74.6921 72.3596C74.5369 72.4483 74.4038 72.4704 74.2708 72.4704Z" fill="black"/>
<path d="M89.8556 63.4715C89.6117 63.4715 89.3678 63.3829 89.1461 63.2277C87.705 62.0531 86.4633 61.499 85.5986 61.6985C84.9113 61.8536 84.601 62.4742 84.5789 62.4963C84.3128 63.0504 83.6476 63.2942 83.1155 63.0283C82.5612 62.7845 82.3174 62.1417 82.5612 61.5877C82.6277 61.4325 83.3151 59.9476 85.0666 59.5486C86.6629 59.1719 88.5253 59.8368 90.5651 61.5211C91.0307 61.9201 91.097 62.6072 90.7201 63.0726C90.4984 63.3164 90.166 63.4715 89.8556 63.4715Z" fill="black"/>
<path d="M69.4364 63.1175C69.2147 63.1175 68.993 63.051 68.7935 62.9181C68.3057 62.5635 68.1726 61.8764 68.5495 61.3666C69.4585 60.1033 72.1634 58.3968 75.8881 60.8791C76.398 61.2115 76.5311 61.8986 76.1985 62.4083C75.866 62.9181 75.1565 63.051 74.6687 62.7186C71.7422 60.7682 70.4119 62.5635 70.3454 62.6521C70.1236 62.9624 69.769 63.1175 69.4364 63.1175Z" fill="black"/>
<path d="M113.357 85.9232C113.113 85.9232 112.869 85.8567 112.669 85.6794C112.182 85.3026 112.093 84.6155 112.47 84.1279L119.853 74.6643C120.23 74.1767 120.939 74.088 121.405 74.4648C121.892 74.8416 121.981 75.5286 121.604 76.0162L114.221 85.4799C114.022 85.7902 113.689 85.9232 113.357 85.9232Z" fill="black"/>
<path d="M121.827 82.7763C121.761 82.7763 115.996 82.4439 115.996 82.4439C115.375 82.3995 114.91 81.8898 114.954 81.2692C114.998 80.6708 115.464 80.2275 116.129 80.2275L121.893 80.56C122.514 80.6043 122.98 81.1141 122.936 81.7347C122.913 82.3331 122.426 82.7763 121.827 82.7763Z" fill="black"/>
<path d="M148.277 196.894C148.011 197.049 147.723 197.16 147.457 197.293C147.302 197.382 147.168 197.448 147.013 197.515C143.998 198.911 140.894 200.152 137.701 201.238C136.837 201.548 135.928 201.836 135.041 202.125C131.715 203.188 128.301 204.075 124.82 204.784C123.579 205.05 122.315 205.272 121.051 205.493C115.486 206.424 109.744 206.912 103.913 206.912C84.9788 206.912 67.2421 201.836 51.9884 192.949C49.993 191.819 48.0642 190.6 46.1796 189.336C45.6032 188.915 45.0267 188.516 44.4502 188.117C44.2064 187.94 43.9404 187.763 43.6965 187.585C42.6323 186.832 41.5902 186.034 40.5703 185.236C44.1177 172.847 50.5473 151.46 54.0281 140.799C55.181 137.297 56.0235 134.97 56.356 134.46C56.3782 134.416 56.4005 134.394 56.4226 134.372L59.3048 132.444C63.0517 129.319 64.8476 128.521 65.9561 127.9C66.067 127.856 66.1336 127.834 66.1557 127.789C66.2222 127.767 55.0702 187.231 55.0702 187.231L109.833 184.039C109.877 184.039 112.471 183.884 112.471 183.884C112.471 183.884 113.978 170.498 117.481 153.432C121.827 132.222 125.042 119.678 125.042 119.678C130.274 119.545 136.149 124.177 136.726 124.664C136.77 124.686 148.277 196.894 148.277 196.894Z" fill="white"/>
<path d="M183.418 169.567C183.219 169.833 183.019 170.077 182.798 170.32C181.645 171.695 180.447 173.024 179.228 174.332C174.107 179.784 168.409 184.682 162.201 188.915C157.789 191.93 153.155 194.611 148.277 196.894C148.011 197.049 147.723 197.16 147.457 197.293C147.302 197.382 147.169 197.448 147.014 197.515C143.998 198.911 140.894 200.152 137.702 201.238C136.837 201.548 135.928 201.836 135.041 202.125C131.716 203.188 128.301 204.075 124.82 204.784L128.634 171.539C129.432 161.655 136.771 124.687 136.771 124.687C136.771 124.687 138.965 125.462 142.468 127.169C149.874 130.759 163.043 138.494 173.308 151.681C177.299 156.801 180.824 162.718 183.418 169.567Z" fill="#E2209E"/>
<path d="M91.9188 129.939C83.5381 129.939 80.6115 125.883 80.4785 125.684C80.1237 125.174 80.2568 124.487 80.7667 124.132C81.2766 123.778 81.9639 123.911 82.2965 124.398C82.363 124.509 86.2209 129.496 98.1932 127.014C110.454 124.465 114.023 116.708 114.068 116.619C114.311 116.065 114.977 115.799 115.531 116.043C116.085 116.287 116.351 116.929 116.107 117.506C115.952 117.86 112.094 126.371 98.6587 129.163C96.0869 129.718 93.8477 129.939 91.9188 129.939Z" fill="#FFB700"/>
</svg>
