<svg width="208" height="207" viewBox="0 0 208 207" fill="none" xmlns="http://www.w3.org/2000/svg">
<path d="M207.043 103.587C207.043 123.312 201.5 141.752 191.922 157.444C190.259 160.17 188.463 162.785 186.579 165.334C181.524 172.094 175.649 178.211 169.13 183.574C166.714 185.547 164.208 187.43 161.614 189.181C159.708 190.467 157.757 191.708 155.761 192.86C144.498 199.443 131.883 203.942 118.403 205.87C114.257 206.469 110.045 206.801 105.743 206.868C105.056 206.912 104.369 206.912 103.681 206.912C95.3452 206.912 87.2084 205.915 79.4486 204.053C68.1192 201.327 57.4993 196.739 47.9658 190.622C44.5071 188.428 41.2036 186.012 38.0553 183.375C33.599 179.74 29.453 175.706 25.6618 171.34C23.9324 169.323 22.2474 167.262 20.6733 165.134C20.3186 164.669 19.986 164.226 19.6534 163.76C15.8622 158.463 12.5365 152.789 9.78732 146.805C3.6903 133.641 0.320312 118.991 0.320312 103.587C0.320312 46.5172 46.5912 0.262695 103.681 0.262695C160.772 0.262695 207.043 46.5172 207.043 103.587Z" fill="#110828"/>
<path d="M169.131 183.574C166.714 185.547 164.209 187.431 161.615 189.182C159.708 190.467 157.757 191.708 155.762 192.861C144.499 199.443 131.884 203.942 118.404 205.87C114.258 206.469 110.045 206.801 105.744 206.868C105.057 206.912 104.369 206.912 103.682 206.912C95.3457 206.912 87.209 205.915 79.4491 204.053C68.1197 201.327 57.4998 196.739 47.9663 190.622C44.5076 188.428 41.2042 186.012 38.0559 183.375C33.5995 179.74 29.4535 175.706 25.6623 171.34C23.933 169.323 22.248 167.262 20.6738 165.135C27.7242 148.446 40.6056 124.532 58.165 118.681C85.8122 109.461 144.721 122.448 144.721 122.448C144.721 122.448 164.896 132.244 169.131 183.574Z" fill="#FFB700"/>
<path d="M155.76 192.86C144.498 199.443 131.882 203.942 118.402 205.87C114.256 206.468 110.044 206.801 105.743 206.867C105.055 206.911 104.368 206.911 103.681 206.911C95.3446 206.911 87.2078 205.914 79.4479 204.052C68.1186 201.326 57.4987 196.739 47.9651 190.622C44.5064 188.427 41.203 186.012 38.0547 183.374C38.2321 156.357 40.2718 131.668 46.8122 125.772C50.0935 122.802 54.0178 120.475 58.1638 118.68C67.7638 114.535 78.4946 113.139 85.545 112.674C90.223 112.363 93.2605 112.474 93.2605 112.474C93.2605 112.474 99.5349 112.718 107.96 113.649C110.288 113.937 112.638 114.225 115.099 114.58C129.444 116.641 146.249 120.653 150.595 128.232C154.342 134.748 155.539 163.937 155.76 192.86Z" fill="#FFB700"/>
<path d="M123.503 58.3524C123.503 58.3524 136.939 35.7016 125.787 30.8479C114.635 25.9942 101.354 38.4277 101.354 38.4277C101.354 38.4277 76.4341 40.644 66.9893 53.9862C57.5222 67.3285 80.824 90.6884 80.824 90.6884L123.503 58.3524Z" fill="#5E1DBB"/>
<path d="M85.2353 95.7412L83.8164 118.68C83.8164 118.68 87.5411 125.528 100.91 127.435C110.865 128.853 114.523 126.814 114.523 126.814L113.836 115.112L113.149 103.698L89.2261 96.8716L85.2353 95.7412Z" fill="#FD8753"/>
<path d="M89.248 96.8936C89.2702 97.5141 89.4698 98.2677 89.7802 99.1542C94.2144 110.923 108.093 114.269 113.858 115.134L113.171 103.72L89.248 96.8936Z" fill="black"/>
<path d="M121.485 51.7259C121.485 51.7259 131.773 81.2251 126.03 96.9387C120.31 112.63 105.877 108.973 97.3632 105.206C88.8496 101.438 85.2135 95.7641 85.2135 95.7641C85.2135 95.7641 76.8329 97.9139 71.9553 89.8908C67.0777 81.8678 71.1128 73.4236 75.9239 71.7835C80.735 70.1435 86.0339 73.9334 86.0339 73.9334L82.3313 65.3119C82.3313 65.2898 103.882 24.5317 121.485 51.7259Z" fill="#FD8753"/>
<path d="M84.4806 86.4328C84.2367 86.4328 83.9929 86.3442 83.7712 86.189L73.8829 78.1216C73.4173 77.7449 73.3286 77.0357 73.7277 76.5702C74.1046 76.1048 74.8141 76.0161 75.2797 76.4151L85.1679 84.4825C85.6335 84.8592 85.7222 85.5685 85.3231 86.0339C85.1236 86.2999 84.8132 86.4328 84.4806 86.4328Z" fill="black"/>
<path d="M75.0814 85.724C74.5715 85.724 74.1059 85.3473 73.9951 84.8153C73.8842 84.2169 74.2833 83.6407 74.8819 83.5077L81.7992 82.1779C82.3978 82.0449 82.9743 82.4439 83.1073 83.0644C83.2182 83.6628 82.8191 84.2391 82.2205 84.3721L75.3031 85.7019C75.2145 85.724 75.1479 85.724 75.0814 85.724Z" fill="black"/>
<path d="M101.598 64.0702C101.332 64.0702 101.088 63.9816 100.867 63.8043C100.401 63.4053 100.357 62.6961 100.756 62.2307C104.192 58.2856 108.427 59.3273 110.178 60.4133C110.688 60.7457 110.866 61.4106 110.533 61.9425C110.201 62.4523 109.536 62.6074 109.003 62.2972C108.649 62.0755 105.412 60.2803 102.419 63.6935C102.219 63.9372 101.909 64.0702 101.598 64.0702Z" fill="black"/>
<path d="M123.901 63.117C123.635 63.117 123.347 63.0283 123.148 62.8289C120.931 60.7455 118.359 62.031 118.337 62.031C117.782 62.3191 117.117 62.0975 116.851 61.5434C116.563 60.9893 116.785 60.3244 117.339 60.0585C117.494 59.9698 121.33 58.0859 124.677 61.2109C125.121 61.632 125.143 62.3191 124.722 62.7845C124.5 63.0062 124.212 63.117 123.901 63.117Z" fill="black"/>
<path d="M118.713 84.7264C118.58 84.7264 118.447 84.7042 118.336 84.6599C117.76 84.4382 117.472 83.8177 117.671 83.2414C120.598 75.2849 116.784 70.6528 116.629 70.4755C116.23 70.01 116.297 69.323 116.762 68.9241C117.228 68.5251 117.915 68.5916 118.314 69.0349C118.514 69.2565 123.148 74.7751 119.755 84.0172C119.578 84.4383 119.157 84.7264 118.713 84.7264Z" fill="black"/>
<path d="M123.125 74.1549C122.615 74.1549 122.149 73.8002 122.038 73.2683L120.93 67.927C120.797 67.3286 121.196 66.7302 121.795 66.6194C122.393 66.4864 122.992 66.8853 123.103 67.4837L124.211 72.8251C124.344 73.4235 123.945 74.0219 123.347 74.1327C123.28 74.1327 123.214 74.1549 123.125 74.1549Z" fill="black"/>
<path d="M106.365 74.5318C105.855 74.5318 105.39 74.1772 105.279 73.6453L104.17 68.304C104.037 67.7056 104.436 67.1071 105.035 66.9963C105.633 66.8633 106.232 67.2623 106.343 67.8607L107.451 73.202C107.584 73.8004 107.185 74.3988 106.587 74.5096C106.52 74.5318 106.432 74.5318 106.365 74.5318Z" fill="black"/>
<path d="M123.503 58.3528C123.503 58.3528 121.285 53.5877 115.565 53.1888C109.845 52.7898 106.254 56.6241 106.254 56.6241C106.254 56.6241 108.182 66.4202 100.068 71.0523C91.9754 75.6844 86.0336 73.8891 86.0336 73.8891L80.513 71.5399L76.877 63.0292L94.3034 46.429L116.142 36.5664L126.318 47.0053L123.503 58.3528Z" fill="#5E1DBB"/>
<path d="M112.372 93.5031C111.485 93.5031 106.187 93.2814 104.125 88.0731C103.903 87.4968 104.169 86.8541 104.745 86.6325C105.322 86.4108 105.965 86.6768 106.187 87.253C107.805 91.3532 112.239 91.2868 112.417 91.2646C113.015 91.2646 113.547 91.73 113.547 92.3284C113.57 92.949 113.082 93.4587 112.483 93.4587C112.483 93.503 112.439 93.5031 112.372 93.5031Z" fill="black"/>
<path d="M108.271 129.23C93.2391 129.23 81.7989 118.835 81.2446 118.303C80.8012 117.882 80.779 117.195 81.1781 116.73C81.5993 116.287 82.2867 116.264 82.7522 116.663C82.9074 116.796 97.895 130.404 115.299 126.149C115.898 125.994 116.496 126.371 116.63 126.969C116.785 127.568 116.408 128.166 115.809 128.299C113.237 128.964 110.688 129.23 108.271 129.23Z" fill="white"/>
</svg>
