<svg width="565" height="565" viewBox="0 0 565 565" fill="none" xmlns="http://www.w3.org/2000/svg">
<g clip-path="url(#clip0_27_776)">
<path d="M282.06 564.12C437.837 564.12 564.12 437.837 564.12 282.06C564.12 126.283 437.837 0 282.06 0C126.283 0 0 126.283 0 282.06C0 437.837 126.283 564.12 282.06 564.12Z" fill="white"/>
<path d="M447.221 77.0195H251.141V480.43H447.221V77.0195Z" fill="#4B4C4C"/>
<path d="M420.962 121.92H370.602V172.28H420.962V121.92Z" fill="white"/>
<path d="M420.962 209.67H370.602V260.03H420.962V209.67Z" fill="white"/>
<path d="M420.962 297.42H370.602V347.78H420.962V297.42Z" fill="white"/>
<path d="M420.962 385.18H370.602V435.54H420.962V385.18Z" fill="white"/>
<path d="M327.741 121.92H277.381V172.28H327.741V121.92Z" fill="white"/>
<path d="M327.741 209.67H277.381V260.03H327.741V209.67Z" fill="white"/>
<path d="M327.741 297.42H277.381V347.78H327.741V297.42Z" fill="white"/>
<path d="M327.741 385.18H277.381V435.54H327.741V385.18Z" fill="white"/>
<path d="M233.74 281.109H106.91V480.429H233.74V281.109Z" fill="#4B4C4C"/>
<path d="M216.75 307.729H184.18V340.299H216.75V307.729Z" fill="white"/>
<path d="M216.75 364.489H184.18V397.059H216.75V364.489Z" fill="white"/>
<path d="M216.75 421.249H184.18V453.819H216.75V421.249Z" fill="white"/>
<path d="M156.451 307.729H123.881V340.299H156.451V307.729Z" fill="white"/>
<path d="M156.451 364.489H123.881V397.059H156.451V364.489Z" fill="white"/>
<path d="M156.451 421.249H123.881V453.819H156.451V421.249Z" fill="white"/>
</g>
<defs>
<clipPath id="clip0_27_776">
<rect width="564.12" height="564.12" fill="white"/>
</clipPath>
</defs>
</svg>
